<?xml version="1.0" encoding="iso-8859-1"?>
<!-- Generator: Adobe Illustrator 19.0.0, SVG Export Plug-In . SVG Version: 6.00 Build 0)  -->
<svg version="1.1" id="Capa_1" xmlns="http://www.w3.org/2000/svg" xmlns:xlink="http://www.w3.org/1999/xlink" x="0px" y="0px"
	 viewBox="0 0 512 512" style="enable-background:new 0 0 512 512;" xml:space="preserve">
<path style="fill:#B20000;" d="M407,391h-45.835v-30H407c41.353,0,75-33.647,75-75v-46h-75v-30h105v76
	C512,343.891,464.891,391,407,391z"/>
<path style="fill:#FF3636;" d="M31,180v75c0,107.399,87.599,196,195,196s196-88.601,196-196v-75H31z"/>
<g>
	<path style="fill:#FFBD86;" d="M143.427,144.961c-14.238-9.492-22.734-25.371-22.734-42.48s8.496-32.988,22.734-42.48
		c5.962-3.97,9.375-10.356,9.375-17.52s-3.413-13.55-9.375-17.52L160.067,0c14.238,9.492,22.734,25.371,22.734,42.48
		s-8.496,32.988-22.734,42.48c-5.962,3.97-9.375,10.356-9.375,17.52s3.413,13.55,9.375,17.52L143.427,144.961z"/>
	<path style="fill:#FFBD86;" d="M257.8,42.599c0,17.1-8.399,32.999-22.8,42.299c-5.4,3.301-8.399,9.001-9,15
		c-0.3,0.901-0.3,1.802-0.3,2.701c0,0.901,0,1.8,0.3,2.701c0.601,5.999,3.9,11.4,9,14.7l-9,13.5l-7.5,11.398
		c-14.399-9.3-22.8-25.199-22.8-42.299S204.101,69.6,218.5,60c3.6-2.401,6-5.4,7.5-9c1.199-2.701,1.8-5.402,1.8-8.401
		s-0.601-6-1.8-8.699c-1.5-3.6-3.9-6.601-7.5-9.001L226,13.5L235,0C249.401,9.6,257.8,25.499,257.8,42.599z"/>
</g>
<path style="fill:#F6A96C;" d="M293.427,144.961c-14.238-9.492-22.734-25.371-22.734-42.48s8.496-32.988,22.734-42.48
	c5.962-3.97,9.375-10.356,9.375-17.52s-3.413-13.55-9.375-17.52L310.067,0c14.238,9.492,22.734,25.371,22.734,42.48
	s-8.496,32.988-22.734,42.48c-5.962,3.97-9.375,10.356-9.375,17.52s3.413,13.55,9.375,17.52L293.427,144.961z"/>
<path style="fill:#F40000;" d="M422,180v75c0,107.399-88.599,196-196,196V180H422z"/>
<g>
	<path style="fill:#F6A96C;" d="M235,120l-9,13.5v-28.2C226.601,111.299,229.9,116.7,235,120z"/>
	<path style="fill:#F6A96C;" d="M257.8,42.599c0,17.1-8.399,32.999-22.8,42.299c-5.4,3.301-8.399,9.001-9,15V51
		c1.199-2.701,1.8-5.402,1.8-8.401s-0.601-6-1.8-8.699V13.5L235,0C249.401,9.6,257.8,25.499,257.8,42.599z"/>
</g>
<path style="fill:#FDBF00;" d="M0,421v15c0,41.4,34.6,76,76,76h301c41.4,0,75-34.6,75-76v-15H0z"/>
<path style="fill:#FF9F00;" d="M452,421v15c0,41.4-33.6,76-75,76H226v-91H452z"/>
<g>
</g>
<g>
</g>
<g>
</g>
<g>
</g>
<g>
</g>
<g>
</g>
<g>
</g>
<g>
</g>
<g>
</g>
<g>
</g>
<g>
</g>
<g>
</g>
<g>
</g>
<g>
</g>
<g>
</g>
</svg>
